# xmcd CD database file
#
# Track frame offsets:
#	150
#	21075
#	46905
#	64900
#	86985
#	106260
#	133000
#	164590
#	182477
#	205824
#	217926
#	232598
#	249655
#	264342
#	277579
#	304611
#	320633
#
# Disc length: 4622 seconds
#
# Revision: 0
# Processed by: cddbd v1.5.1PL0 Copyright (c) Steve Scherf et al.
# Submitted via: CDex 1.51
#
DISCID=e3120c11
DTITLE=Art Farmer+Bill Evans - Modern Art
DYEAR=1958
DGENRE=Jazz
TTITLE0=Mox Nix
TTITLE1=Fair Weather
TTITLE2=Darn That Dream
TTITLE3=The Touch of Your Lips
TTITLE4=Jubilation
TTITLE5=Like Someone in Love
TTITLE6=I Love You
TTITLE7=Cold Breeze
TTITLE8=Air Mail Special
TTITLE9=Midnight Sun
TTITLE10=Flying Home
TTITLE11=Stardust
TTITLE12=Four to Four
TTITLE13=I Can't Get Started
TTITLE14=Cinderella's Curfew
TTITLE15=I Don't Stand a Ghost of a Chance
TTITLE16=Patting
EXTD=YEAR: 1958
EXTT0=
EXTT1=
EXTT2=
EXTT3=
EXTT4=
EXTT5=
EXTT6=
EXTT7=
EXTT8=
EXTT9=
EXTT10=
EXTT11=
EXTT12=
EXTT13=
EXTT14=
EXTT15=
EXTT16=
PLAYORDER=
